<svg id="Group_100" data-name="Group 100" xmlns="http://www.w3.org/2000/svg" xmlns:xlink="http://www.w3.org/1999/xlink" width="227.516" height="236.513" viewBox="0 0 227.516 236.513">
  <defs>
    <linearGradient id="linear-gradient" x1="0.76" y1="1.57" x2="-0.15" y2="0.741" gradientUnits="objectBoundingBox">
      <stop offset="0" stop-color="#ab0eb0"/>
      <stop offset="0" stop-color="#10abb1"/>
      <stop offset="1" stop-color="#00ed64"/>
    </linearGradient>
    <clipPath id="clip-path">
      <rect id="Rectangle_32" data-name="Rectangle 32" width="227.516" height="236.513" fill="url(#linear-gradient)"/>
    </clipPath>
  </defs>
  <g id="Group_100-2" data-name="Group 100" transform="translate(0 0)" clip-path="url(#clip-path)">
    <path id="Path_75" data-name="Path 75" d="M150.313,131.1,11.85,51.261,11.816,0,135.261,71.171a30.042,30.042,0,0,1,15.033,26Z" transform="translate(33.382 0)" fill="url(#linear-gradient)"/>
    <path id="Path_76" data-name="Path 76" d="M194.5,59.931,71.1,131.179a30.047,30.047,0,0,1-30.035,0L11.687,114.218,150.1,34.3Z" transform="translate(33.018 96.9)" fill="url(#linear-gradient)"/>
    <path id="Path_77" data-name="Path 77" d="M45.155,13.394,44.5,173.224,0,198.673.584,56.186a30.035,30.035,0,0,1,15.125-25.95Z" transform="translate(-0.003 37.84)" fill="url(#linear-gradient)"/>
  </g>
</svg>
